# xmcd
#
# Track frame offsets: 
#        150
#        9787
#        26364
#        43133
#        50130
#        66462
#        68850
#        86747
#        92748
#        95708
#        113204
#        120268
#        123489
#        142200
#        159207
#        176301
#        193401
#        197354
#        197825
#        212944
#        228317
#
# Disc length: 3279 seconds
#
# Revision: 0
# Processed by: cddbd v1.5.2PL0 Copyright (c) Steve Scherf et al.
# Submitted via: ExactAudioCopy v0.99pb5
#
DISCID=2e0ccd15
DTITLE=Мастер ШЕFF - Премиум
DYEAR=2011
DGENRE=Rap
TTITLE0=Высота
TTITLE1=Премиум
TTITLE2=Мастера feat. Al Solo
TTITLE3=Безлимитные Слова feat. И. Викулов 
TTITLE4=Море Москоу Сити feat. Шмель
TTITLE5=В Твоей Тачке
TTITLE6=Зачем Тебе Рэп?! feat. Mr. Simon
TTITLE7=В Отражении feat. Шмель
TTITLE8=Транзит
TTITLE9=Ядовитый Флоу feat. Ю-ЛА
TTITLE10=В Отеле Шератон feat. Шмель
TTITLE11=Грязный Партнёр
TTITLE12=Рулит ПРЕМИУМ! feat. Al Solo
TTITLE13=Наш Футбол feat. А. Иванов, Сергей Кот, Kappa, Ю. Давыдов, Че
TTITLE13=ловек В Маске, Пьер Нарцыз, С. Минаев, Al Solo, Банан, А. Ема
TTITLE13=нов, 
TTITLE14=Настоящие Мужчины feat. Ю-ЛА and Страйк
TTITLE15=Я Покорю Твой Остров feat. С. Крылов, Человек В Маске and Al So
TTITLE15=lo
TTITLE16=Восьмёрка feat. Капа
TTITLE17=Мысли Влада Валова
TTITLE18=Эй, Бармен! feat. Al Solo
TTITLE19=Сердце Поёт feat. Человек В Маске Страйк and Сергей Кот
TTITLE20=Этот Мир! feat. Страйк and Шмель
EXTD=
EXTT0=
EXTT1=
EXTT2=
EXTT3=
EXTT4=
EXTT5=
EXTT6=
EXTT7=
EXTT8=
EXTT9=
EXTT10=
EXTT11=
EXTT12=
EXTT13=
EXTT14=
EXTT15=
EXTT16=
EXTT17=
EXTT18=
EXTT19=
EXTT20=
PLAYORDER=
